<?xml version="1.0" encoding="iso-8859-1"?>
<!-- Generator: Adobe Illustrator 19.0.0, SVG Export Plug-In . SVG Version: 6.00 Build 0)  -->
<svg xmlns="http://www.w3.org/2000/svg" xmlns:xlink="http://www.w3.org/1999/xlink" version="1.1" id="Capa_1" x="0px" y="0px" viewBox="0 0 480 480" style="enable-background:new 0 0 480 480;" xml:space="preserve" width="512px" height="512px">
<g>
	<g>
		<path d="M440,272c22.08-0.026,39.974-17.92,40-40V40c-0.026-22.08-17.92-39.974-40-40H40C17.92,0.026,0.026,17.92,0,40v192    c0.026,22.08,17.92,39.974,40,40h232v48.8c-10.524-10.763-24.947-16.82-40-16.8h-8v176h256V312    c-0.012-17.673-14.349-31.99-32.022-31.978c-9.176,0.006-17.908,3.952-23.978,10.834c-11.656-13.255-31.851-14.551-45.105-2.894    c-1.026,0.902-1.992,1.869-2.895,2.894c-10.062-11.446-26.808-14.193-40-6.56V272H440z M432,16h8c13.255,0,24,10.745,24,24v192    c0,13.255-10.745,24-24,24h-8V16z M48,256h-8c-13.255,0-24-10.745-24-24V40c0-13.255,10.745-24,24-24h8V256z M352,296    c8.837,0,16,7.163,16,16h16c0-8.837,7.163-16,16-16s16,7.163,16,16h16c0-8.837,7.163-16,16-16s16,7.163,16,16v152H240V320.8    c18.613,3.825,31.979,20.198,32,39.2v40h16V200c0.005-1.174,0.142-2.344,0.408-3.488c0.048-0.192,0.12-0.36,0.176-0.552    c0.245-0.957,0.58-1.889,1-2.784c0.048-0.088,0.104-0.176,0.144-0.264c2.095-4.091,5.809-7.115,10.24-8.336l0.168-0.048    c1.005-0.246,2.031-0.396,3.064-0.448c0.168,0,0.328-0.048,0.496-0.048c1.2-0.034,2.4,0.071,3.576,0.312h0.144    c0.904,0.192,1.789,0.459,2.648,0.8c0.328,0.136,0.624,0.32,0.936,0.472c0.564,0.27,1.114,0.569,1.648,0.896    c0.344,0.224,0.656,0.48,0.976,0.728c0.442,0.327,0.866,0.677,1.272,1.048c0.328,0.304,0.624,0.632,0.92,0.96    s0.672,0.8,0.984,1.184c0.312,0.384,0.536,0.744,0.8,1.136c0.264,0.392,0.504,0.896,0.736,1.36s0.4,0.8,0.56,1.216    c0.208,0.555,0.385,1.121,0.528,1.696c0.096,0.368,0.224,0.728,0.296,1.104c0.191,1.007,0.285,2.031,0.28,3.056v112h16    C336,303.163,343.163,296,352,296z M272,200.44c-35.536,17.726-78.713,3.289-96.439-32.247c-4.987-9.998-7.576-21.02-7.561-32.193    c-0.082-39.764,32.087-72.066,71.851-72.148c39.764-0.082,72.066,32.087,72.148,71.851c0.023,11.209-2.571,22.268-7.576,32.297    c-0.072,0-0.136,0-0.208,0s-0.144,0-0.216,0c-17.673,0-32,14.327-32,32V200.44z M335.392,194.016c-0.144-0.8-0.4-1.496-0.6-2.248    c-0.284-1.128-0.631-2.239-1.04-3.328c-0.336-0.864-0.744-1.68-1.152-2.504c-0.408-0.824-0.904-1.792-1.432-2.64    c-0.528-0.848-1.032-1.6-1.6-2.336c-0.568-0.736-1.232-1.6-1.896-2.304s-1.224-1.344-1.896-1.968s-1.6-1.4-2.488-2.056    c-0.664-0.504-1.304-1.032-2.008-1.488c-0.44-0.288-0.888-0.544-1.344-0.8c2.953-6.493,5.102-13.322,6.4-20.336h27.144    c4.418,12.497,18.131,19.046,30.627,14.627c12.497-4.418,19.046-18.131,14.627-30.627c-4.418-12.497-18.131-19.046-30.627-14.627    c-6.835,2.416-12.211,7.793-14.627,14.627H328c-0.02-5.369-0.531-10.725-1.528-16H344c2.518,0,4.889-1.186,6.4-3.2l21.88-29.176    c1.228,0.22,2.472,0.343,3.72,0.368c13.4,0.146,24.381-10.599,24.526-23.999c0.146-13.4-10.599-24.381-23.999-24.526    c-13.4-0.146-24.381,10.599-24.526,23.999c-0.066,6.029,2.116,11.866,6.119,16.374L340,104h-18.112    c-6.261-15.927-17.014-29.693-30.952-39.624L299.312,56H336V40h-40c-2.122,0-4.156,0.844-5.656,2.344L276.608,56.08    c-19.303-8.953-41.219-10.521-61.6-4.408l-17.352-17.328c-1.5-1.5-3.534-2.344-5.656-2.344h-24v16h20.688l10.232,10.232    C177.709,69.493,161.998,88.907,155.408,112h-8.096l-24.848-24.848c3.555-4.251,5.513-9.61,5.536-15.152    c0.176-13.43-10.569-24.46-24-24.636c-13.43-0.176-24.46,10.569-24.636,24c-0.176,13.43,10.57,24.46,24,24.636    c1.641,0.021,3.28-0.123,4.892-0.432l30.088,30.088c1.5,1.5,3.534,2.344,5.656,2.344h8.408c-0.24,2.64-0.408,5.296-0.408,8    s0.168,5.36,0.408,8h-25.88c-4.418-12.497-18.131-19.046-30.627-14.627S76.855,147.503,81.273,160s18.131,19.046,30.627,14.627    c6.835-2.416,12.211-7.793,14.627-14.627h28.88c1.891,6.709,4.577,13.168,8,19.24L140.88,200h-14.4    c-4.44-12.461-18.141-18.963-30.602-14.522c-12.461,4.44-18.963,18.141-14.522,30.602c2.98,8.362,10.34,14.39,19.125,15.664    c1.176,0.171,2.363,0.259,3.552,0.264c10.146-0.029,19.178-6.434,22.56-16H144c2.006,0,3.939-0.754,5.416-2.112l23.2-21.368    c7.318,8.701,16.239,15.915,26.28,21.248L188.688,224H168v16h24c2.122,0,4.156-0.844,5.656-2.344l17.328-17.328    c18.741,5.644,38.842,4.761,57.016-2.504V256H64V16h352v240h-80v-56C335.988,197.991,335.785,195.987,335.392,194.016z M368,144    c0-4.418,3.582-8,8-8s8,3.582,8,8s-3.582,8-8,8S368,148.418,368,144z M368,64c0-4.418,3.582-8,8-8s8,3.582,8,8s-3.582,8-8,8    S368,68.418,368,64z M112,72c0,4.418-3.582,8-8,8s-8-3.582-8-8s3.582-8,8-8S112,67.582,112,72z M112,152c0,4.418-3.582,8-8,8    s-8-3.582-8-8s3.582-8,8-8S112,147.582,112,152z M111.92,209.16c-0.641,4.372-4.704,7.396-9.075,6.755    c-4.372-0.641-7.396-4.704-6.755-9.076c0.575-3.927,3.942-6.838,7.911-6.84c0.399,0.001,0.797,0.031,1.192,0.088    C109.551,200.742,112.559,204.799,111.92,209.16z" fill="#1c3ca8"/>
	</g>
</g>
<g>
	<g>
		<path d="M278.664,144.094c-1.045-2.989-2.674-5.74-4.792-8.094c8.825-9.807,8.029-24.911-1.778-33.736    c-2.354-2.118-5.105-3.747-8.094-4.792V80h-16v16h-16V80h-16v16h-8c-4.418,0-8,3.582-8,8v64c0,4.418,3.582,8,8,8h8v16h16v-16h16    v16h16v-17.472C276.454,170.173,283.019,156.547,278.664,144.094z M256,160h-40v-16h40c4.418,0,8,3.582,8,8S260.418,160,256,160z     M256,128h-40v-16h40c4.418,0,8,3.582,8,8S260.418,128,256,128z" fill="#1c3ca8"/>
	</g>
</g>
<g>
	<g>
		<rect x="136" y="32" width="16" height="16" fill="#1c3ca8"/>
	</g>
</g>
<g>
	<g>
		<rect x="352" y="200" width="16" height="16" fill="#1c3ca8"/>
	</g>
</g>
<g>
	<g>
		<path d="M168,312v-8h-16v8c0.026,26.499,21.501,47.974,48,48v-16C182.327,344,168,329.673,168,312z" fill="#1c3ca8"/>
	</g>
</g>
<g>
	<g>
		<path d="M128,312v-8h-16v8c0.057,48.577,39.423,87.943,88,88v-16C160.254,383.956,128.044,351.746,128,312z" fill="#1c3ca8"/>
	</g>
</g>
<g>
</g>
<g>
</g>
<g>
</g>
<g>
</g>
<g>
</g>
<g>
</g>
<g>
</g>
<g>
</g>
<g>
</g>
<g>
</g>
<g>
</g>
<g>
</g>
<g>
</g>
<g>
</g>
<g>
</g>
</svg>
