<?xml version="1.0" encoding="iso-8859-1"?>
<!-- Generator: Adobe Illustrator 19.0.0, SVG Export Plug-In . SVG Version: 6.00 Build 0)  -->
<svg xmlns="http://www.w3.org/2000/svg" xmlns:xlink="http://www.w3.org/1999/xlink" version="1.1" id="Capa_1" x="0px" y="0px" viewBox="0 0 512 512" style="enable-background:new 0 0 512 512;" xml:space="preserve" width="512px" height="512px">
<g>
	<g>
		<path d="M394.667,405.333c-29.419,0-53.333,23.936-53.333,53.333S365.248,512,394.667,512S448,488.064,448,458.667    S424.085,405.333,394.667,405.333z M394.667,490.667c-17.643,0-32-14.357-32-32s14.357-32,32-32s32,14.357,32,32    S412.309,490.667,394.667,490.667z" fill="#6E7FF3"/>
	</g>
</g>
<g>
	<g>
		<path d="M181.333,405.333c-29.419,0-53.333,23.936-53.333,53.333S151.915,512,181.333,512c29.419,0,53.333-23.936,53.333-53.333    S210.752,405.333,181.333,405.333z M181.333,490.667c-17.643,0-32-14.357-32-32s14.357-32,32-32c17.643,0,32,14.357,32,32    S198.976,490.667,181.333,490.667z" fill="#6E7FF3"/>
	</g>
</g>
<g>
	<g>
		<path d="M437.333,362.667H191.125c-25.344,0-47.339-18.027-52.288-42.88L85.12,51.243c-1.003-4.992-5.376-8.576-10.453-8.576h-64    C4.779,42.667,0,47.445,0,53.333S4.779,64,10.667,64H65.92l51.989,259.989C124.885,358.763,155.648,384,191.125,384h246.208    c5.888,0,10.667-4.779,10.667-10.667C448,367.445,443.221,362.667,437.333,362.667z" fill="#6E7FF3"/>
	</g>
</g>
<g>
	<g>
		<path d="M464.64,240.043c-5.483-0.725-11.179,3.392-11.904,9.259c-1.984,15.979-15.637,28.032-31.744,28.032H128    c-5.888,0-10.667,4.779-10.667,10.667s4.779,10.667,10.667,10.667h292.992c26.837,0,49.6-20.075,52.928-46.72    C474.645,246.101,470.485,240.768,464.64,240.043z" fill="#6E7FF3"/>
	</g>
</g>
<g>
	<g>
		<path d="M245.333,106.667H96c-5.888,0-10.667,4.779-10.667,10.667S90.112,128,96,128h149.333c5.888,0,10.667-4.779,10.667-10.667    S251.221,106.667,245.333,106.667z" fill="#6E7FF3"/>
	</g>
</g>
<g>
	<g>
		<path d="M394.667,0c-64.683,0-117.333,52.629-117.333,117.333s52.651,117.333,117.333,117.333S512,182.037,512,117.333    S459.349,0,394.667,0z M394.667,213.333c-52.928,0-96-43.072-96-96c0-52.928,43.072-96,96-96s96,43.072,96,96    C490.667,170.261,447.595,213.333,394.667,213.333z" fill="#6E7FF3"/>
	</g>
</g>
<g>
	<g>
		<path d="M396.139,106.752c-0.021,0-2.155-0.277-2.219-0.277c-30.891-3.776-31.253-10.411-31.253-10.475    c0-2.667,11.349-10.667,32.043-10.667c19.947,0,31.637,7.552,32.021,10.645c0.768,5.845,6.165,9.92,11.947,9.237    c5.845-0.747,9.984-6.08,9.237-11.925C445.76,76.331,423.381,64,394.709,64c-30.443,0-53.376,13.76-53.376,32    c0,25.557,36.331,29.995,51.925,31.872l2.261,0.299c30.784,3.797,31.147,10.432,31.147,10.496    c0,2.112-10.304,10.667-32.043,10.667c-19.947,0-31.637-7.552-32.021-10.667c-0.768-5.845-6.272-9.899-11.947-9.237    c-5.845,0.747-9.984,6.08-9.237,11.925c2.155,16.981,24.533,29.312,53.205,29.312c30.443,0,53.376-13.76,53.376-32    C448,113.152,411.776,108.693,396.139,106.752z" fill="#6E7FF3"/>
	</g>
</g>
<g>
	<g>
		<path d="M394.667,42.667c-5.888,0-10.667,4.779-10.667,10.667v128c0,5.888,4.779,10.667,10.667,10.667s10.667-4.779,10.667-10.667    v-128C405.333,47.445,400.555,42.667,394.667,42.667z" fill="#6E7FF3"/>
	</g>
</g>
<g>
</g>
<g>
</g>
<g>
</g>
<g>
</g>
<g>
</g>
<g>
</g>
<g>
</g>
<g>
</g>
<g>
</g>
<g>
</g>
<g>
</g>
<g>
</g>
<g>
</g>
<g>
</g>
<g>
</g>
</svg>
